<mxfile host="app.diagrams.net" agent="Mozilla/5.0 (Windows NT 10.0; Win64; x64) AppleWebKit/537.36 (KHTML, like Gecko) Chrome/129.0.0.0 Safari/537.36" version="24.7.16">
  <diagram id="C5RBs43oDa-KdzZeNtuy" name="Page-1">
    <mxGraphModel dx="955" dy="2844" grid="1" gridSize="10" guides="1" tooltips="1" connect="1" arrows="1" fold="1" page="1" pageScale="1" pageWidth="827" pageHeight="1169" math="0" shadow="0">
      <root>
        <mxCell id="WIyWlLk6GJQsqaUBKTNV-0" />
        <mxCell id="WIyWlLk6GJQsqaUBKTNV-1" parent="WIyWlLk6GJQsqaUBKTNV-0" />
        <mxCell id="xYJEaoJbE82QnkTlm5Bg-2" value="" style="edgeStyle=orthogonalEdgeStyle;rounded=0;orthogonalLoop=1;jettySize=auto;html=1;" edge="1" parent="WIyWlLk6GJQsqaUBKTNV-1" source="xYJEaoJbE82QnkTlm5Bg-0" target="xYJEaoJbE82QnkTlm5Bg-1">
          <mxGeometry relative="1" as="geometry" />
        </mxCell>
        <mxCell id="xYJEaoJbE82QnkTlm5Bg-0" value="Початок" style="ellipse;whiteSpace=wrap;html=1;" vertex="1" parent="WIyWlLk6GJQsqaUBKTNV-1">
          <mxGeometry x="340" y="-2300" width="120" height="80" as="geometry" />
        </mxCell>
        <mxCell id="xYJEaoJbE82QnkTlm5Bg-9" value="" style="edgeStyle=orthogonalEdgeStyle;rounded=0;orthogonalLoop=1;jettySize=auto;html=1;" edge="1" parent="WIyWlLk6GJQsqaUBKTNV-1" source="xYJEaoJbE82QnkTlm5Bg-1" target="xYJEaoJbE82QnkTlm5Bg-8">
          <mxGeometry relative="1" as="geometry" />
        </mxCell>
        <mxCell id="xYJEaoJbE82QnkTlm5Bg-1" value="a = 1.1&lt;div&gt;b = 2&lt;/div&gt;&lt;div&gt;h = 0.1&lt;/div&gt;&lt;div&gt;d = 0.001&lt;/div&gt;" style="shape=parallelogram;perimeter=parallelogramPerimeter;whiteSpace=wrap;html=1;fixedSize=1;" vertex="1" parent="WIyWlLk6GJQsqaUBKTNV-1">
          <mxGeometry x="340" y="-2190" width="120" height="60" as="geometry" />
        </mxCell>
        <mxCell id="xYJEaoJbE82QnkTlm5Bg-11" value="" style="edgeStyle=orthogonalEdgeStyle;rounded=0;orthogonalLoop=1;jettySize=auto;html=1;" edge="1" parent="WIyWlLk6GJQsqaUBKTNV-1" source="xYJEaoJbE82QnkTlm5Bg-8" target="xYJEaoJbE82QnkTlm5Bg-10">
          <mxGeometry relative="1" as="geometry" />
        </mxCell>
        <mxCell id="xYJEaoJbE82QnkTlm5Bg-13" value="" style="edgeStyle=orthogonalEdgeStyle;rounded=0;orthogonalLoop=1;jettySize=auto;html=1;" edge="1" parent="WIyWlLk6GJQsqaUBKTNV-1" source="xYJEaoJbE82QnkTlm5Bg-8" target="xYJEaoJbE82QnkTlm5Bg-12">
          <mxGeometry relative="1" as="geometry" />
        </mxCell>
        <mxCell id="xYJEaoJbE82QnkTlm5Bg-8" value="x &amp;lt;= b" style="rhombus;whiteSpace=wrap;html=1;" vertex="1" parent="WIyWlLk6GJQsqaUBKTNV-1">
          <mxGeometry x="320" y="-2080" width="160" height="80" as="geometry" />
        </mxCell>
        <mxCell id="xYJEaoJbE82QnkTlm5Bg-10" value="Кінець" style="ellipse;whiteSpace=wrap;html=1;" vertex="1" parent="WIyWlLk6GJQsqaUBKTNV-1">
          <mxGeometry x="160" y="-2080" width="120" height="80" as="geometry" />
        </mxCell>
        <mxCell id="xYJEaoJbE82QnkTlm5Bg-15" value="" style="edgeStyle=orthogonalEdgeStyle;rounded=0;orthogonalLoop=1;jettySize=auto;html=1;" edge="1" parent="WIyWlLk6GJQsqaUBKTNV-1" source="xYJEaoJbE82QnkTlm5Bg-12" target="xYJEaoJbE82QnkTlm5Bg-14">
          <mxGeometry relative="1" as="geometry" />
        </mxCell>
        <mxCell id="xYJEaoJbE82QnkTlm5Bg-12" value="total_sum = 0&lt;div&gt;k = 1&lt;/div&gt;&lt;div&gt;term = 1&lt;/div&gt;" style="whiteSpace=wrap;html=1;" vertex="1" parent="WIyWlLk6GJQsqaUBKTNV-1">
          <mxGeometry x="520" y="-2070" width="120" height="60" as="geometry" />
        </mxCell>
        <mxCell id="xYJEaoJbE82QnkTlm5Bg-17" value="" style="edgeStyle=orthogonalEdgeStyle;rounded=0;orthogonalLoop=1;jettySize=auto;html=1;" edge="1" parent="WIyWlLk6GJQsqaUBKTNV-1" source="xYJEaoJbE82QnkTlm5Bg-14" target="xYJEaoJbE82QnkTlm5Bg-16">
          <mxGeometry relative="1" as="geometry" />
        </mxCell>
        <mxCell id="xYJEaoJbE82QnkTlm5Bg-19" value="" style="edgeStyle=orthogonalEdgeStyle;rounded=0;orthogonalLoop=1;jettySize=auto;html=1;" edge="1" parent="WIyWlLk6GJQsqaUBKTNV-1" source="xYJEaoJbE82QnkTlm5Bg-14" target="xYJEaoJbE82QnkTlm5Bg-18">
          <mxGeometry relative="1" as="geometry" />
        </mxCell>
        <mxCell id="xYJEaoJbE82QnkTlm5Bg-14" value="abs(term) &amp;gt; d" style="rhombus;whiteSpace=wrap;html=1;" vertex="1" parent="WIyWlLk6GJQsqaUBKTNV-1">
          <mxGeometry x="520" y="-1960" width="120" height="80" as="geometry" />
        </mxCell>
        <mxCell id="xYJEaoJbE82QnkTlm5Bg-16" value="term = 1&lt;div&gt;k += 1&lt;/div&gt;" style="whiteSpace=wrap;html=1;" vertex="1" parent="WIyWlLk6GJQsqaUBKTNV-1">
          <mxGeometry x="340" y="-1950" width="120" height="60" as="geometry" />
        </mxCell>
        <mxCell id="xYJEaoJbE82QnkTlm5Bg-21" value="" style="edgeStyle=orthogonalEdgeStyle;rounded=0;orthogonalLoop=1;jettySize=auto;html=1;" edge="1" parent="WIyWlLk6GJQsqaUBKTNV-1" source="xYJEaoJbE82QnkTlm5Bg-18" target="xYJEaoJbE82QnkTlm5Bg-20">
          <mxGeometry relative="1" as="geometry" />
        </mxCell>
        <mxCell id="xYJEaoJbE82QnkTlm5Bg-18" value="return total_sum" style="whiteSpace=wrap;html=1;" vertex="1" parent="WIyWlLk6GJQsqaUBKTNV-1">
          <mxGeometry x="680" y="-1950" width="120" height="60" as="geometry" />
        </mxCell>
        <mxCell id="xYJEaoJbE82QnkTlm5Bg-20" value="x += h" style="whiteSpace=wrap;html=1;" vertex="1" parent="WIyWlLk6GJQsqaUBKTNV-1">
          <mxGeometry x="680" y="-1840" width="120" height="60" as="geometry" />
        </mxCell>
        <mxCell id="xYJEaoJbE82QnkTlm5Bg-22" value="No" style="text;html=1;align=center;verticalAlign=middle;resizable=0;points=[];autosize=1;strokeColor=none;fillColor=none;" vertex="1" parent="WIyWlLk6GJQsqaUBKTNV-1">
          <mxGeometry x="290" y="-2062" width="40" height="30" as="geometry" />
        </mxCell>
        <mxCell id="xYJEaoJbE82QnkTlm5Bg-23" value="Yes" style="text;html=1;align=center;verticalAlign=middle;resizable=0;points=[];autosize=1;strokeColor=none;fillColor=none;" vertex="1" parent="WIyWlLk6GJQsqaUBKTNV-1">
          <mxGeometry x="480" y="-2062" width="40" height="30" as="geometry" />
        </mxCell>
        <mxCell id="xYJEaoJbE82QnkTlm5Bg-24" value="Так" style="text;html=1;align=center;verticalAlign=middle;resizable=0;points=[];autosize=1;strokeColor=none;fillColor=none;" vertex="1" parent="WIyWlLk6GJQsqaUBKTNV-1">
          <mxGeometry x="480" y="-1942" width="40" height="30" as="geometry" />
        </mxCell>
        <mxCell id="xYJEaoJbE82QnkTlm5Bg-25" value="Ні" style="text;html=1;align=center;verticalAlign=middle;resizable=0;points=[];autosize=1;strokeColor=none;fillColor=none;" vertex="1" parent="WIyWlLk6GJQsqaUBKTNV-1">
          <mxGeometry x="645" y="-1942" width="30" height="30" as="geometry" />
        </mxCell>
      </root>
    </mxGraphModel>
  </diagram>
</mxfile>
